PathFileType	4	(X/Y/Z)	C:\Users\Basilio\Documents\Thesis Gigler\squatting_fais\c3dfiles\075\SLS_front_pre4\markers_experimental.trc
DataRate	CameraRate	NumFrames	NumMarkers	Units	OrigDataRate	OrigDataStartFrame	OrigNumFrames
200.000000	200.000000	4	61	mm	200.000000	833	1334
Frame#	Time	FHD			LBHD			RBHD			C7			T10			CLAV			LSHO			LUUPA			LMUPA			LDUPA			LLEP			LMEP			LRAD			LUL			LRFIN			RSHO			RUPA1			RMUPA			RDUPA			RLEP			RMEP			RRAD			RUL			RUFIN			USACR			LSACR			RSACR			LTHI1			LTHI2			LTHI3			LTHI4			LLFC			LMFC			LTIB1			LTIB2			LTIB3			LTIB4			LLMAL			LMMAL			LHEE			LMT1			LMT2			LMT5			RTHI			RTHI2			RTHI3			RTHI4			RLFC			RMFC			RTIB1			RTIB2			RTIB3			RTIB4			RLMAL			RMMAL			RHEE			RMT1			RMT2			RMT5			RASI			LASI			
		X1	Y1	Z1	X2	Y2	Z2	X3	Y3	Z3	X4	Y4	Z4	X5	Y5	Z5	X6	Y6	Z6	X7	Y7	Z7	X8	Y8	Z8	X9	Y9	Z9	X10	Y10	Z10	X11	Y11	Z11	X12	Y12	Z12	X13	Y13	Z13	X14	Y14	Z14	X15	Y15	Z15	X16	Y16	Z16	X17	Y17	Z17	X18	Y18	Z18	X19	Y19	Z19	X20	Y20	Z20	X21	Y21	Z21	X22	Y22	Z22	X23	Y23	Z23	X24	Y24	Z24	X25	Y25	Z25	X26	Y26	Z26	X27	Y27	Z27	X28	Y28	Z28	X29	Y29	Z29	X30	Y30	Z30	X31	Y31	Z31	X32	Y32	Z32	X33	Y33	Z33	X34	Y34	Z34	X35	Y35	Z35	X36	Y36	Z36	X37	Y37	Z37	X38	Y38	Z38	X39	Y39	Z39	X40	Y40	Z40	X41	Y41	Z41	X42	Y42	Z42	X43	Y43	Z43	X44	Y44	Z44	X45	Y45	Z45	X46	Y46	Z46	X47	Y47	Z47	X48	Y48	Z48	X49	Y49	Z49	X50	Y50	Z50	X51	Y51	Z51	X52	Y52	Z52	X53	Y53	Z53	X54	Y54	Z54	X55	Y55	Z55	X56	Y56	Z56	X57	Y57	Z57	X58	Y58	Z58	X59	Y59	Z59	X60	Y60	Z60	X61	Y61	Z61	

834	4.165	-221.0931854248047	1414.825561523438	-818.9227294921877	-371.7143249511719	1308.00244140625	-894.7108154296877	-343.6770019531251	1350.9501953125	-740.6676635742189	-423.9348754882814	1224.523315429688	-824.427917480469	-581.7975463867189	945.949645996094	-796.2229614257815	-311.9062805175782	1124.285522460938	-805.4790649414065	-311.9230041503907	1186.253784179688	-932.6307373046877	-155.4441375732422	1113.490478515625	-1006.014892578125	-134.0180053710938	1136.380737304688	-967.3847656250002	-88.02123260498048	1105.390869140625	-992.4082641601565	-9.641959190368654	1096.32763671875	-969.631774902344	-31.02911376953126	1030.957275390625	-920.004821777344	nan	nan	nan	225.6453094482422	1123.709594726563	-862.8989868164065	224.6423492431641	1156.614501953125	-761.4001464843751	-339.8852233886719	1195.813842773438	-685.6575317382814	-211.5908355712891	1151.857666015625	-563.4286499023439	-177.339096069336	1161.48095703125	-597.2713012695314	-142.3318176269532	1142.310180664063	-551.2404174804689	-71.9882278442383	1134.874633789063	-553.2226562500001	-65.68572235107423	1059.218627929688	-566.6382446289064	154.3681182861328	1141.333374023438	-708.5662841796876	170.3037109375	1159.490112304688	-637.8298950195314	232.1972351074219	1179.434326171875	-733.9902954101564	-620.3732299804689	817.2396240234377	-803.2317504882815	-631.6231689453126	787.1840820312502	-830.2532348632815	-628.6278686523439	785.091247558594	-774.9135742187502	-381.9092407226563	607.9525756835939	-1030.842041015625	-298.3499145507813	595.0490722656251	-1035.399047851563	-278.0489807128907	634.0243530273439	-1011.807434082031	-266.3493041992188	544.1807861328126	-1034.036254882813	-188.0814819335938	470.6175537109376	-1025.680786132813	-145.2279968261719	492.7603149414064	-906.541931152344	-67.86913299560548	409.2508544921876	-995.993835449219	-99.12072753906253	340.0242919921876	-1037.874267578125	-60.74727249145509	357.7471008300782	-1021.561340332031	-19.55581665039063	290.2774963378907	-987.531188964844	-8.471329689025881	127.4674530029297	-995.0433349609377	12.07594776153565	164.6596374511719	-915.806335449219	-48.71778488159181	87.32844543457033	-945.3208618164065	152.8896789550782	139.7990417480469	-916.443054199219	159.2557678222657	132.3291320800782	-965.5671997070315	131.3694000244141	89.29361724853517	-1006.7138671875	-414.867156982422	586.2224121093751	-633.1882324218751	-348.6819152832032	585.6041870117189	-637.3180541992189	-334.5526733398438	615.1554565429689	-647.6602783203126	-300.3812866210938	517.5552368164064	-646.7542114257814	-203.9281768798829	418.7412719726564	-688.2835083007814	-184.5166168212891	439.5328674316407	-813.701354980469	-196.958236694336	292.2085571289063	-783.4716796875002	-271.6613464355469	233.2745056152344	-730.4151611328126	-244.2747955322266	220.4135284423829	-768.1792602539065	-275.3827819824219	193.7437591552735	-809.468200683594	-389.0158691406251	106.7492446899414	-776.3171386718752	-354.2514038085938	132.9912414550782	-858.3313598632815	-445.1499633789064	90.21004486083986	-838.3662109375002	-241.7601776123047	53.71326446533205	-825.6802978515627	-245.4641265869141	59.0796241760254	-783.4036865234377	-288.7538452148438	38.05104064941407	-736.5703735351564	-459.2965087890626	749.5838012695314	-684.4328002929689	-475.2813720703126	762.4053344726564	-932.7525024414065	
835	4.17	-221.5176544189454	1416.520263671875	-819.0307617187502	-372.1466369628907	1309.341796875	-894.9143066406252	-344.1217651367188	1352.622802734375	-740.9001464843751	-424.2815551757814	1226.076904296875	-824.546325683594	-581.7317504882814	947.3428955078127	-796.256530761719	-311.9750366210938	1126.175415039063	-805.6050415039065	-312.1562805175782	1187.895263671875	-932.6168212890627	-155.6932373046875	1115.350830078125	-1006.171752929688	-134.9676971435547	1138.333862304688	-967.7473144531252	-88.18679046630861	1107.1025390625	-992.681823730469	-9.658206939697267	1098.291137695313	-969.8765258789065	-31.24407005310059	1032.6904296875	-920.1809082031252	nan	nan	nan	225.5254211425782	1125.933715820313	-862.8911132812502	224.5624237060547	1159.286865234375	-761.4170532226564	-340.2844238281251	1197.465576171875	-685.9216918945314	-212.0335998535157	1153.719970703125	-563.5989990234376	-177.7544403076172	1163.496826171875	-597.3469238281251	-142.7273712158203	1144.401123046875	-551.2857055664064	-72.3660125732422	1136.99609375	-553.1466064453126	-66.01599884033205	1061.338134765625	-566.4932861328126	154.1011962890625	1143.469848632813	-708.0150756835939	169.9324188232422	1161.724975585938	-637.7943725585939	232.0081329345704	1181.759399414063	-734.2134399414064	-620.2537231445314	818.5034179687502	-803.0728149414065	-631.4654541015626	788.5927734375002	-830.159606933594	-628.5437011718751	786.5068969726565	-774.8140869140627	-382.3150939941407	609.2917480468751	-1030.922485351563	-298.3468017578126	596.1074218750001	-1035.307373046875	-278.1561279296876	634.9688720703126	-1011.754699707031	-266.4823303222657	545.1699218750001	-1034.081787109375	-188.4427032470703	471.3847656250001	-1025.813720703125	-145.5610656738282	493.4956970214845	-906.599060058594	-68.80499267578126	409.8802795410157	-996.3800048828127	-99.76786041259768	340.7579345703126	-1037.937377929688	-61.16361236572267	358.3991088867188	-1021.721435546875	-20.21976280212403	290.7767028808594	-987.6605224609377	-9.550757408142092	128.0726776123047	-995.245544433594	11.21133136749268	165.1654815673828	-915.935729980469	-49.67792892456056	87.84813690185548	-945.516052246094	152.1191711425782	140.1276397705078	-916.4526977539065	158.2817687988282	132.5615844726563	-965.6916503906252	130.5609130859375	89.59107208251955	-1006.750427246094	-415.1896362304689	587.2352905273439	-633.2515258789064	-348.9140625000001	586.4831542968751	-637.1748046875001	-334.7420959472657	615.8786010742189	-647.5288696289064	-300.7696838378907	518.3641357421876	-646.5630493164064	-204.4951324462891	419.1095581054689	-688.2695922851564	-185.1515502929688	439.9128417968751	-813.635925292969	-197.3662261962891	292.5802307128907	-783.397888183594	-271.9793395996094	233.5158843994141	-730.3794555664064	-244.3961029052735	220.6499481201172	-768.1091308593752	-276.4575195312501	193.8916320800782	-810.0756835937502	-389.1578063964845	106.8078002929688	-776.328308105469	-353.9177246093751	132.8171539306641	-858.1765136718752	-445.1788330078126	90.14949035644533	-838.3668212890627	-241.6520996093751	53.76295852661134	-825.5671386718752	-245.4094848632813	59.14822006225587	-783.3472900390627	-288.7210998535157	38.01895141601563	-736.5715332031251	-459.1806945800782	751.0976562500001	-684.4331054687501	-475.533660888672	763.8307495117189	-932.956237792969	
836	4.175	-222.0228118896485	1418.46484375	-819.3538208007815	-372.6479797363282	1311.147216796875	-895.1451416015627	-344.5687866210938	1354.31787109375	-741.1123657226564	-424.5241088867189	1227.70654296875	-824.7437744140627	-581.6433715820314	948.7396240234377	-796.2207031250002	-312.1531066894532	1127.672241210938	-805.6397094726565	-312.5251159667969	1189.358032226563	-932.882019042969	-155.7077178955078	1117.4169921875	-1006.41796875	-134.5265197753907	1139.811279296875	-967.6719970703127	-88.77645111083986	1108.70947265625	-992.2227172851565	-9.722990036010744	1100.117797851563	-969.941345214844	-31.27650833129884	1034.697265625	-920.270446777344	nan	nan	nan	225.2514343261719	1128.16552734375	-862.9095458984377	223.9365234375001	1161.352783203125	-761.3125610351564	-340.5492553710938	1199.135620117188	-685.9804077148439	-212.3855133056641	1155.685424804688	-563.5900268554689	-178.0735321044922	1165.363647460938	-597.3436889648439	-143.0604248046875	1146.419677734375	-551.2529907226564	-72.69192504882814	1139.244750976563	-553.0727539062501	-66.25539398193361	1063.563720703125	-566.2393188476564	153.450927734375	1145.944946289063	-708.5065307617189	169.4508819580078	1164.211791992188	-637.7644653320314	231.3401947021485	1184.122314453125	-734.1061401367189	-620.1740112304689	819.9656982421877	-803.0986938476565	-631.2386474609376	790.1246337890627	-830.1844482421877	-628.3879394531251	788.004333496094	-774.767028808594	-383.1160583496094	610.7249145507814	-1031.15478515625	-298.6169433593751	597.0935058593751	-1035.32861328125	-278.4396362304688	636.0843505859376	-1011.873046875	-266.7700805664063	546.0380249023439	-1034.046142578125	-188.3899383544922	472.1009216308595	-1025.724243164063	-145.8431701660157	494.1732177734376	-906.732849121094	-69.29121398925783	410.5095214843751	-996.4902954101565	-100.3516235351563	341.3076477050782	-1037.9931640625	-61.68606185913087	358.9067077636719	-1021.849182128906	-20.80999183654786	291.4428710937501	-987.7634277343752	-10.45138263702393	128.6981353759766	-995.3147583007815	10.38738918304444	165.6510162353516	-915.941101074219	-50.6943817138672	88.49282073974611	-945.6425781250002	150.6918029785157	140.5501251220703	-916.8194580078127	156.9983215332032	132.8942413330078	-965.9304199218752	129.7249755859375	89.8060989379883	-1006.794067382813	-415.4275207519532	588.4019165039064	-633.1592407226564	-349.0506286621094	587.4287719726564	-637.0895385742189	-334.7947082519532	616.6264648437501	-647.3611450195314	-301.2705688476563	519.0447998046876	-646.4058837890626	-205.2219848632813	419.4863586425782	-688.2892456054689	-185.593246459961	440.4282226562501	-813.590026855469	-197.7823333740235	292.9028625488282	-783.3320312500002	-272.3106689453126	233.7358398437501	-730.2998046875001	-244.7193298339844	220.8759460449219	-768.074157714844	-276.6791076660157	194.0009460449219	-809.9766845703127	-389.1034545898439	106.7218322753907	-776.349060058594	-354.4601745605469	133.0139923095703	-858.3342895507815	-445.1442260742189	90.12215423583986	-838.3680419921877	-241.7501983642579	53.7539749145508	-825.590515136719	-245.8791656494141	58.67223739624025	-783.7922973632815	-288.7838134765626	38.04399871826173	-736.5813598632814	-459.1285095214845	752.3251342773439	-684.2479248046876	-475.3563232421876	765.0216674804689	-932.6939086914065	
837	4.18	-222.5578002929688	1420.201049804688	-819.5810546875002	-372.9903869628907	1312.911499023438	-895.5111083984377	-344.8684387207032	1356.14111328125	-741.6169433593751	-424.8515625000001	1229.223022460938	-824.8636474609377	-581.6681518554689	950.0783691406252	-796.2637329101565	-312.4062805175782	1129.473510742188	-805.737731933594	-312.8146057128907	1190.99609375	-932.8878173828127	-156.13330078125	1118.8095703125	-1006.476867675781	-135.3210754394532	1141.878173828125	-967.9995727539065	-88.77727508544923	1110.755126953125	-992.9400024414065	-10.18578243255615	1102.161865234375	-970.1572875976565	-31.363920211792	1036.546142578125	-920.6397705078127	nan	nan	nan	225.084701538086	1130.44091796875	-862.9167480468752	222.5927734375001	1163.67578125	-760.2070312500001	-340.9116210937501	1200.891479492188	-686.1318969726564	-212.6838531494141	1157.871215820313	-563.6571655273439	-178.4513854980469	1167.540161132813	-597.3535156250001	-143.5406799316407	1148.519409179688	-551.3480224609376	-73.04635620117189	1141.44384765625	-553.0933227539064	-66.58824157714845	1065.676513671875	-565.9976806640626	153.3047637939453	1148.100708007813	-708.2621459960939	169.1287841796875	1166.657592773438	-637.7716064453126	231.0218963623047	1186.418701171875	-734.2385253906251	-619.9677734375001	821.4800415039065	-803.0137939453127	-631.1401977539064	791.522888183594	-830.072692871094	-628.3405761718751	789.4652099609377	-774.7430419921877	-382.0585021972657	611.4288940429689	-1030.672973632813	-299.0863647460938	598.2200317382814	-1035.307495117188	-278.4169311523438	637.1093139648439	-1011.860290527344	-267.1924743652344	547.0614013671876	-1034.094116210938	-188.6622772216797	472.9477844238282	-1025.523071289063	-146.0691680908203	494.9775695800782	-906.7039184570315	-69.7804412841797	411.0342102050782	-996.520446777344	-100.9149703979492	342.1668090820313	-1038.024291992188	-62.16542434692384	359.5738830566407	-1021.801147460938	-21.44367980957032	292.0238952636719	-987.7353515625002	-11.39168453216553	129.2416229248047	-995.4279785156252	9.387917518615724	165.9896850585938	-916.2575683593752	-51.42153167724611	88.86570739746095	-945.8575439453127	150.1927337646485	140.4981689453125	-916.423278808594	156.5810852050782	133.2281188964844	-965.6845703125002	128.5612487792969	90.21531677246095	-1006.859497070313	-415.526336669922	589.4662475585939	-632.9433593750001	-349.3357238769532	588.2708740234376	-637.1333007812501	-334.8482360839844	617.6587524414064	-647.2749633789064	-301.6315002441407	519.7921752929689	-646.3659057617189	-205.8822937011719	419.9011535644532	-688.2722167968751	-186.0528717041016	440.6504516601564	-813.5638427734377	-198.3741149902344	293.2409057617188	-783.265808105469	-272.6416320800782	233.8247070312501	-730.2681884765626	-245.0303955078126	221.0918121337891	-767.9804687500001	-276.3181457519532	194.122787475586	-809.4212036132815	-389.2859191894532	106.7673263549805	-776.3181152343752	-354.0830383300782	132.8337860107422	-858.201354980469	-445.2040100097657	90.10592651367189	-838.3655395507815	-241.7722930908204	53.79152297973634	-825.6268310546877	-245.7546386718751	59.29103088378908	-783.495056152344	-288.8241577148438	38.05572128295899	-736.5783081054689	-459.089080810547	753.8080444335939	-684.1935424804689	-475.3845825195314	766.5974121093751	-932.7857666015627	
